<?xml version="1.0" encoding="UTF-8" standalone="no"?>
<svg xmlns:svg="http://www.w3.org/2000/svg" xmlns="http://www.w3.org/2000/svg" version="1.0" width="700" height="205" id="svg2842" xml:space="preserve"><defs id="defs2846"/><g transform="matrix(1.25,0,0,-1.25,-21.868125,226.21018)" id="g2852"><path d="m 52.926579,141.74614 3.485542,-4.5067 2.558133,1.97881 -5.676592,7.33714 -2.003528,-1.548 c 0.795446,-1.23688 -0.34645,-2.72502 -1.755538,-3.78234 l 1.018106,-1.31656 2.373877,1.83765" id="path2864" style="fill:#9c9a9b;fill-opacity:1;fill-rule:nonzero;stroke:none"/><path d="m 62.178799,145.97933 c 0.176493,0.71803 0.685546,1.14272 1.452394,1.53759 1.118608,0.57462 2.043565,0.34706 2.45763,-0.45881 0.413248,-0.80586 -0.118888,-1.73551 -1.172946,-2.27807 -0.815465,-0.41897 -1.969413,-0.53235 -2.320561,0.11174 l -2.716039,-1.39642 c 1.17458,-1.89527 3.445503,-1.596 5.875148,-0.3487 2.589388,1.33003 4.048931,3.36481 3.003453,5.40204 -0.881651,1.71714 -2.834926,1.94061 -5.12117,0.76767 -0.847332,-0.4349 -1.516944,-1.01913 -1.869523,-1.70917 l -0.03187,-0.0161 -0.357481,1.71734 4.939978,2.53586 -0.875318,1.70508 -7.033999,-3.61055 1.308789,-5.22433 2.461512,1.26486" id="path2866" style="fill:#9c9a9b;fill-opacity:1;fill-rule:nonzero;stroke:none"/><path d="m 121.1033,148.83203 c -0.84979,0.42837 -1.7155,0.62794 -2.48153,0.50824 l -0.0318,0.016 1.1801,1.29674 4.95529,-2.50156 0.86409,1.70999 -7.05626,3.56439 -3.45654,-4.12941 2.47111,-1.24873 c 0.68391,0.28169 1.32861,0.1197 2.09791,-0.26741 1.12269,-0.56809 1.48181,-1.45218 1.07408,-2.25805 -0.40856,-0.80995 -1.47466,-0.92577 -2.53281,-0.39118 -0.81792,0.41345 -1.58865,1.2808 -1.27427,1.94142 l -2.72665,1.37804 c -0.84182,-2.06665 0.73416,-3.72638 3.17197,-4.95918 2.59797,-1.31267 5.10279,-1.29673 6.13622,0.74601 0.8696,1.72367 -0.0966,3.43529 -2.39084,4.59475" id="path2868" style="fill:#9c9a9b;fill-opacity:1;fill-rule:nonzero;stroke:none"/><path d="m 132.01852,141.34087 c -0.51314,-0.66226 -1.5529,-0.71579 -2.57733,0.0757 -0.99421,0.7699 -1.17704,1.76738 -0.64714,2.45211 0.47146,0.61201 1.55431,0.63203 2.46395,-0.0719 1.03813,-0.80199 1.26488,-1.80171 0.76052,-2.45599 z m 0.32071,3.94189 c -2.06092,1.59416 -4.62641,1.85911 -5.84002,0.29109 -1.10614,-1.43217 -0.57707,-3.53885 1.3852,-5.05641 0.85223,-0.66083 1.94776,-1.15151 2.82716,-0.92414 l 0.0286,-0.0214 c -0.80505,-0.92577 -1.96696,-1.45873 -3.27392,-0.44696 -0.29926,0.229 -0.57054,0.52438 -0.72292,0.82753 -0.16118,0.29129 -0.20673,0.61445 -0.0854,0.88961 l -2.25989,1.74757 c -0.70924,-1.62378 0.1021,-3.27555 1.90792,-4.67197 3.15666,-2.43781 5.74442,-1.52818 7.38106,0.58647 1.52164,1.97085 1.53759,4.54838 -1.3478,6.77866" id="path2870" style="fill:#9c9a9b;fill-opacity:1;fill-rule:nonzero;stroke:none"/><path d="m 29.873145,107.23882 c 1.627867,-0.53847 2.823078,1.03097 3.771934,2.66925 0.955189,1.65178 1.663615,3.36728 2.359579,3.13746 0.591989,-0.19548 0.487399,-1.10921 0.261676,-1.79128 -0.32398,-0.97358 -0.934353,-1.92713 -1.738788,-1.60151 l -1.050789,-3.17198 c 2.041114,-0.65818 3.720049,1.48977 4.521827,3.9141 0.759698,2.28768 0.875318,5.21841 -1.094708,5.87046 -1.655851,0.54888 -2.84228,-1.08368 -3.785416,-2.69868 -0.949674,-1.63583 -1.675055,-3.32743 -2.472952,-3.06024 -0.668591,0.22102 -0.592805,1.29428 -0.275975,2.24947 0.443685,1.34536 1.08041,2.11935 2.16327,1.83602 l 1.052425,3.17362 c -2.318928,0.74601 -4.046481,-1.42441 -4.975318,-4.21888 -0.885735,-2.67703 -1.023621,-5.54975 1.263235,-6.30781" id="path2872" style="fill:#9c9a9b;fill-opacity:1;fill-rule:nonzero;stroke:none"/><path d="m 28.827871,91.249621 0.255344,3.331519 c -1.08041,0.20979 -1.67485,1.157013 -1.555144,2.716854 0.167505,2.14897 1.637262,2.864746 3.04492,2.755456 1.406637,-0.110096 2.748926,-1.041386 2.583667,-3.190357 -0.106837,-1.397852 -0.689427,-2.364276 -1.658915,-2.467231 l -0.257795,-3.331314 c 2.290125,-0.09029 3.822186,2.802243 4.032998,5.565672 0.299875,3.8661 -1.696502,6.54231 -4.442977,6.75455 -2.747497,0.21142 -5.131792,-2.12732 -5.430034,-5.996486 -0.249011,-3.24368 0.998087,-5.775666 3.427936,-6.138663" id="path2874" style="fill:#9c9a9b;fill-opacity:1;fill-rule:nonzero;stroke:none"/><path d="m 36.142544,80.519679 -3.412002,-0.585044 -0.746829,4.336959 3.411185,0.586473 -0.567271,3.295565 -9.366409,-1.613566 0.567475,-3.295565 3.857117,0.666344 0.747033,-4.339206 -3.856504,-0.666344 0.568088,-3.293115 9.364775,1.613568 -0.566658,3.293931" id="path2876" style="fill:#9c9a9b;fill-opacity:1;fill-rule:nonzero;stroke:none"/><path d="m 36.797653,64.434467 c -1.286932,-0.576873 -2.910916,-0.400584 -3.795018,1.568013 -0.881649,1.966963 0.06864,3.299652 1.355772,3.876523 1.287953,0.574421 2.91255,0.398949 3.795018,-1.568014 0.882467,-1.967778 -0.06536,-3.299446 -1.355772,-3.876522 z m 3.300469,4.747959 c -1.655035,3.688795 -4.591486,4.873793 -7.107335,3.746196 -2.513601,-1.129027 -3.582775,-4.109396 -1.928762,-7.799826 1.6534,-3.68818 4.589033,-4.869094 7.103452,-3.743948 2.515849,1.126575 3.585227,4.106946 1.932645,7.797578" id="path2878" style="fill:#9c9a9b;fill-opacity:1;fill-rule:nonzero;stroke:none"/><path d="m 45.99574,58.669423 -2.025181,2.661088 -7.560619,-5.757281 5.648607,-7.420896 1.693233,1.288769 -3.621792,4.762055 5.865752,4.466265" id="path2880" style="fill:#9c9a9b;fill-opacity:1;fill-rule:nonzero;stroke:none"/><path d="m 52.121532,43.62397 -2.207189,1.897508 3.271665,1.575981 0.02798,-0.02227 -1.092462,-3.451222 z m -8.318683,2.477649 2.605321,-2.235788 1.722853,0.766031 3.394436,-2.916432 -0.50987,-1.805789 2.644338,-2.27174 2.551187,10.334875 -2.575088,2.212705 -9.833177,-4.083862" id="path2882" style="fill:#9c9a9b;fill-opacity:1;fill-rule:nonzero;stroke:none"/><path d="m 80.115966,34.587261 c 1.31982,-0.272911 2.275826,-0.973575 2.215973,-1.791286 l 3.272278,-0.678397 c 0.185074,2.396348 -2.381027,4.001744 -4.985531,4.542868 -3.800737,0.787479 -6.710019,-0.853869 -7.269324,-3.550909 -0.558487,-2.697041 1.45791,-5.358333 5.258443,-6.146629 1.161915,-0.241045 2.705007,-0.235325 3.752733,0.485152 l -0.01675,-1.055692 2.110568,-0.438987 1.057325,5.097475 -5.27846,1.093073 -0.372598,-1.797822 2.287674,-0.474735 c -0.351761,-0.809949 -1.559843,-1.144961 -3.178108,-0.808315 -2.110567,0.437352 -2.63494,1.987799 -2.348343,3.368083 0.28721,1.38049 1.381919,2.595108 3.49412,2.156121" id="path2884" style="fill:#9c9a9b;fill-opacity:1;fill-rule:nonzero;stroke:none"/><path d="m 93.894098,27.908495 -0.09172,1.80722 6.280642,0.319281 -0.09725,1.915077 -6.280838,-0.320712 -0.08375,1.661163 6.872018,0.351148 -0.1005,1.981262 -10.210687,-0.518654 0.482906,-9.491425 10.390031,0.52662 -0.10766,2.126501 -7.0532,-0.357481" id="path2886" style="fill:#9c9a9b;fill-opacity:1;fill-rule:nonzero;stroke:none"/><path d="m 111.53118,38.567351 1.74124,-5.592023 -0.0337,-0.0094 -5.99566,4.266484 -3.27718,-1.021374 2.82553,-9.074296 3.00182,0.935375 -1.76105,5.654939 0.0344,0.01287 6.01569,-4.331239 3.278,1.021375 -2.82717,9.072661 -3.00182,-0.935375" id="path2888" style="fill:#9c9a9b;fill-opacity:1;fill-rule:nonzero;stroke:none"/><path d="m 124.73,36.645942 -0.95193,1.540028 5.34955,3.305984 -1.00625,1.629295 -5.35099,-3.304962 -0.87552,1.416237 5.85615,3.616277 -1.042,1.687719 -8.69843,-5.374062 4.99513,-8.084993 8.85,5.46762 -1.11778,1.811305 -6.00793,-3.710448" id="path2890" style="fill:#9c9a9b;fill-opacity:1;fill-rule:nonzero;stroke:none"/><path d="m 134.66142,54.023805 3.24593,-6.765173 -0.0255,-0.02553 -6.78887,3.193428 -2.45538,-2.475198 9.59458,-3.823003 2.70828,2.729724 -3.82219,9.63932 -2.45681,-2.473564" id="path2892" style="fill:#9c9a9b;fill-opacity:1;fill-rule:nonzero;stroke:none"/><path d="m 146.67442,57.666433 -1.548,0.939051 3.26207,5.376719 -1.63991,0.993387 -3.26044,-5.376513 -1.42256,0.864083 3.56745,5.882502 -1.69548,1.02934 -5.30093,-8.743166 8.12564,-4.928129 5.39572,8.898006 -1.82173,1.102675 -3.66183,-6.037955" id="path2894" style="fill:#9c9a9b;fill-opacity:1;fill-rule:nonzero;stroke:none"/><path d="m 147.74768,78.282869 5.60796,-1.689148 -0.01,-0.03432 -6.89428,-2.577335 -0.99012,-3.285149 9.10044,-2.74341 0.90821,3.010602 -5.67271,1.709167 0.0113,0.03432 6.9572,2.559155 0.98869,3.285965 -9.09901,2.740959 -0.90801,-3.010807" id="path2896" style="fill:#9c9a9b;fill-opacity:1;fill-rule:nonzero;stroke:none"/><path d="m 156.19628,95.277716 c -1.7155,0.07578 -2.43679,-1.76187 -2.90437,-3.595645 -0.46759,-1.848891 -0.68228,-3.692062 -1.41481,-3.660195 -0.6257,0.02798 -0.77094,0.933536 -0.73886,1.651765 0.0445,1.023826 0.37178,2.106686 1.23525,2.013334 l 0.1483,3.33928 c -2.14244,0.07742 -3.1726,-2.450481 -3.2876,-4.999013 -0.1068,-2.40595 0.58014,-5.258647 2.65414,-5.350367 1.74267,-0.07823 2.43843,1.815391 2.90601,3.628329 0.46841,1.833571 0.70863,3.656928 1.54636,3.620976 0.70557,-0.03187 0.92414,-1.085108 0.87941,-2.091365 -0.0623,-1.417872 -0.46351,-2.335475 -1.58395,-2.357944 l -0.14687,-3.338668 c 2.43393,-0.09008 3.50637,2.471316 3.63711,5.414099 0.12604,2.820831 -0.52335,5.617557 -2.93012,5.725414" id="path2898" style="fill:#9c9a9b;fill-opacity:1;fill-rule:nonzero;stroke:none"/><path d="m 149.14247,99.151784 9.40705,1.356386 -0.47718,3.30762 -9.40706,-1.35496 0.47719,-3.309046" id="path2900" style="fill:#9c9a9b;fill-opacity:1;fill-rule:nonzero;stroke:none"/><path d="m 150.64103,107.10482 c 1.64931,0.56666 1.60314,2.58387 1.37497,4.44297 -0.23635,1.87525 -0.68065,3.6602 0.11317,3.93393 0.66716,0.22899 1.25772,-0.67023 1.58313,-1.62214 0.46125,-1.34475 0.42366,-2.34366 -0.60874,-2.77467 l 1.08348,-3.16218 c 2.29809,0.8075 2.36039,3.58278 1.40296,6.37154 -0.91536,2.66681 -2.54384,5.03271 -4.82212,4.25321 -1.62377,-0.55706 -1.62132,-2.53117 -1.38763,-4.40866 0.24186,-1.89363 0.71659,-3.68655 0.0239,-3.92351 -0.59117,-0.20203 -1.05957,0.58647 -1.29265,1.26385 -0.33195,0.97031 -0.42366,2.09708 0.41346,2.32852 l -1.08613,3.16136 c -2.01947,-0.71169 -2.0546,-3.4408 -1.22708,-5.85452 0.78114,-2.27807 2.46478,-4.68401 4.42928,-4.0097" id="path2902" style="fill:#9c9a9b;fill-opacity:1;fill-rule:nonzero;stroke:none"/><path d="m 62.199635,37.757606 c -0.753978,-0.999926 -0.552155,-2.421882 0.446749,-3.175861 1.000742,-0.75643 2.421882,-0.554606 3.174431,0.444503 0.755611,1.001354 0.556035,2.421677 -0.442869,3.175655 -1.003193,0.754183 -2.424333,0.554607 -3.178311,-0.444297" id="path2904" style="fill:#9c9a9b;fill-opacity:1;fill-rule:nonzero;stroke:none"/><path d="m 43.647396,128.30629 c 0.738045,1.01341 0.517019,2.42986 -0.494754,3.1679 -1.013407,0.73804 -2.429849,0.51865 -3.169527,-0.49476 -0.738045,-1.0134 -0.51702,-2.42964 0.494753,-3.16789 1.013407,-0.73804 2.431279,-0.5162 3.169528,0.49475" id="path2906" style="fill:#9c9a9b;fill-opacity:1;fill-rule:nonzero;stroke:none"/><path d="m 140.08983,130.97943 c -0.73825,-1.0134 -0.51703,-2.42964 0.49618,-3.16789 1.01198,-0.73804 2.42985,-0.5162 3.16789,0.49475 0.73825,1.01341 0.51723,2.42986 -0.49475,3.1679 -1.01341,0.73804 -2.42965,0.51865 -3.16932,-0.49476" id="path2908" style="fill:#9c9a9b;fill-opacity:1;fill-rule:nonzero;stroke:none"/><path d="m 97.652551,155.70792 -1.840925,-2.88457 4.506094,0 0,1.39643 -1.775553,-0.008 0.983992,1.46812 -0.983992,1.51613 1.743483,0.0109 0,1.37804 -4.474024,0 1.840925,-2.8766" id="path2910" style="fill:#9c9a9b;fill-opacity:1;fill-rule:nonzero;stroke:none"/><path d="m 87.913544,154.21182 -1.110846,-0.012 0,3.00672 1.033426,-0.0109 0,1.38845 -3.706566,0 0,-1.38845 1.029544,0.0109 0,-3.00672 -1.097364,0.012 0,-1.38847 3.851806,0 0,1.38847" id="path2912" style="fill:#9c9a9b;fill-opacity:1;fill-rule:nonzero;stroke:none"/><path d="m 93.159934,156.55362 -2.345892,0 0.0104,2.05071 -1.719586,0 0,-5.78098 1.719586,0 -0.0104,2.2981 2.345892,0 0,-2.2981 1.715705,0 0,5.78098 -1.715705,0 0,-2.05071" id="path2914" style="fill:#9c9a9b;fill-opacity:1;fill-rule:nonzero;stroke:none"/><path d="m 91.264877,162.02369 c 0,0.43491 0.313562,0.71006 0.768482,0.71006 0.40855,0 0.714144,-0.31111 0.714144,-0.71006 l 0.02145,-2.04274 3.206298,0 0,1.7155 -1.965329,0 -0.008,0.43898 c -0.01205,1.23034 -0.58014,2.22231 -1.980649,2.22231 -1.075507,0 -1.819271,-0.60261 -1.951028,-1.63583 -0.0239,-0.2194 -0.0239,-0.45085 -0.0239,-0.67595 l 0,-0.34951 -1.962876,0 -0.0024,-1.7155 3.179945,0 0.0038,2.04274" id="path2916" style="fill:#9c9a9b;fill-opacity:1;fill-rule:nonzero;stroke:none"/><path d="m 92.033359,151.46677 c -0.568906,0 -1.031793,-0.46288 -1.031793,-1.03342 0,-0.5681 0.462887,-1.03078 1.031793,-1.03078 0.57054,0 1.033221,0.46268 1.033221,1.03078 0,0.57054 -0.462681,1.03342 -1.033221,1.03342" id="path2918" style="fill:#9c9a9b;fill-opacity:1;fill-rule:nonzero;stroke:none"/><path d="m 91.895269,22.600414 c -38.578321,0 -69.964124,31.387439 -69.964124,69.965759 0,34.128387 24.568949,62.611037 56.946508,68.731317 l 0.975003,-1.20093 -8.406318,-3.20527 8.402232,-3.21427 -5.675775,-6.9819 8.883707,1.41623 -0.294565,-1.83275 c -25.71064,-4.35923 -45.358609,-26.77921 -45.358609,-53.712427 0,-30.046783 24.445159,-54.493371 54.491941,-54.493371 30.046781,0 54.491941,24.446588 54.491941,54.493371 0,26.918927 -19.62325,49.327667 -45.31306,53.705887 l -0.24267,1.79946 8.65308,-1.38846 -5.44454,7.0722 8.17896,3.12398 -8.27231,3.37298 0.86571,1.06529 c 32.42475,-6.08044 57.04701,-34.58719 57.04701,-68.751337 0,-38.57832 -31.3856,-69.965759 -69.964121,-69.965759 z m -10.263175,109.923136 1.258332,2.13835 -5.200223,0 0.608126,2.22393 c 0,1.07164 -0.867555,1.94143 -1.940612,1.94143 -0.261062,0 -0.508439,-0.0535 -0.734163,-0.14768 0.0431,0.19548 0.0717,0.38158 0.0717,0.52273 0,0.70618 -0.572787,1.28081 -1.278965,1.28081 -0.706178,0 -1.280803,-0.57463 -1.280803,-1.28081 0,-0.14115 0.02962,-0.32725 0.07191,-0.52273 -0.226746,0.0942 -0.472488,0.14768 -0.731713,0.14768 -1.07326,0 -1.941427,-0.86979 -1.941427,-1.94143 l 0.606492,-2.22393 -1.370276,0 c -0.941503,0 -1.725918,-0.67023 -1.903025,-1.55597 -0.285575,0.0799 -0.584838,0.12767 -0.893702,0.12767 -1.763504,0 -3.191793,-1.42828 -3.191793,-3.19179 0,-0.55052 0.141153,-1.06917 0.384649,-1.52001 0.54092,0.99748 1.594365,1.67404 2.804693,1.67404 1.087764,0 2.045199,-0.54501 2.621255,-1.37477 0.06782,-0.0957 0.130122,-0.1955 0.186094,-0.29927 0.165054,-0.30477 0.259225,-0.64877 0.316626,-1.00298 l -6.455289,0 c -1.763504,0 -3.191793,1.42991 -3.191793,3.18934 l 0,-2.0548 c 0,-1.7633 1.428289,-3.19179 3.191793,-3.19179 l 6.118645,0 c -0.545006,-0.97746 -1.5864,-1.63972 -2.787331,-1.63972 -0.06128,0 -0.123586,0.004 -0.187525,0.008 0.577078,-0.83385 1.538599,-1.38049 2.629222,-1.38049 1.362922,0 2.52402,0.85632 2.98037,2.05869 l 8.644296,0 c 1.761054,0 3.191795,-1.4283 3.191795,-3.18935 0,-0.82016 0.0038,-1.97493 -0.814035,-2.85106 l -0.796264,-1.1946 -5.444332,-8.40223 c -0.99441,-1.45873 -2.978735,-1.83377 -4.436645,-0.83876 -1.45464,0.99196 -1.837655,3.03859 -0.844268,4.49487 1.2663,0.70454 1.763505,2.16245 1.527363,3.67858 -0.293746,1.87524 -2.007,3.16625 -3.874072,2.97628 l -1.07326,0.0239 c -6.826455,0 -11.924542,4.6162 -12.629902,11.15932 7.204568,6.87447 16.3618,11.71006 26.545308,13.58919 l -0.757247,-4.72387 6.939011,5.6335 2.341193,-6.02059 0,-9.31759 -9.280204,2.99794 z M 53.60804,58.278441 c 0.06864,0.289662 0.244313,0.534587 0.496389,0.694126 l 6.674883,3.770299 1.867889,-1.920591 -0.02635,-0.02247 0.459619,-0.422849 0.343182,-0.351148 0.02083,0.01593 2.384296,-2.190234 c 0.415699,-0.418968 0.415699,-1.129232 -0.02002,-1.563928 -0.210606,-0.209177 -0.491485,-0.327248 -0.78993,-0.327248 l -1.340656,0 1.697319,-1.693234 0.22981,0 c 1.18173,-0.0024 2.292576,0.460435 3.12949,1.294285 0.836302,0.837731 1.296737,1.946943 1.296737,3.131942 0,2.353858 -1.851343,4.265053 -4.170883,4.400692 -0.521106,0.522535 -1.265482,1.264665 -1.635833,1.635832 1.062024,0.674107 19.559314,12.411943 21.282167,13.503587 -0.57932,-6.469789 -6.161129,-14.062276 -11.427538,-18.612088 -2.40983,-2.410647 -3.335399,-5.098904 -3.335399,-7.428862 0,-2.057252 0.720477,-3.832605 1.777804,-4.889931 0.927203,-0.92557 2.33813,-1.204813 3.512709,-0.688611 l 0.741927,0.325615 -0.573604,0.57442 c -0.933741,0.933741 -1.265687,2.561402 -1.265687,3.774386 0,2.43373 0.628145,3.670614 1.804155,4.947331 0.249011,-0.247376 0.773384,-0.771749 1.508162,-1.50816 -0.497818,-1.344538 -0.737229,-2.701126 -0.737229,-4.001743 0,-2.601237 0.919237,-4.959181 2.438429,-6.479393 0.317647,-0.316831 3.686547,-3.111924 5.103806,-2.637188 l 1.014225,0.343181 -0.864288,0.630392 c -0.494753,0.362996 -2.088097,2.220671 -2.629221,3.353784 -0.432449,0.905551 -0.690244,1.992496 -0.690244,3.141542 0,1.851139 0.757246,3.996024 2.432096,5.669444 0.08866,0.131553 3.779901,9.240167 5.663111,13.628807 0.0016,-0.09968 0.0033,-0.861632 0.0033,-0.861632 0.01185,-1.033426 0.02308,-2.0548 0.02308,-3.056155 0,-5.300115 -0.321529,-10.006402 -2.652304,-12.337995 -1.448309,-1.448308 -4.141468,-2.214338 -4.141468,-2.214338 l 0.698211,-0.821798 c 0.06782,-0.07823 1.188267,-1.803339 2.999571,-1.861557 0.431634,-0.01614 0.771546,0.275159 1.148229,0.453082 0.09418,-4.151681 0.876135,-5.779547 2.27174,-7.343475 -13.925005,0.411 -26.499959,6.286353 -35.643503,15.562472 l -0.939256,1.541663 c -0.111738,0.177923 -0.168323,0.378929 -0.168323,0.586473 0,0.08375 0.0096,0.169956 0.02859,0.255343 z m -4.054242,4.643983 c 0,0.327249 0.129919,0.674312 0.375866,0.933536 0.254527,0.28333 0.602406,0.442869 0.982153,0.458802 l 3.183828,-0.008 c -1.591097,-0.362996 -2.962803,-1.40827 -3.715963,-2.900498 -0.390166,0.566658 -0.785233,1.205017 -0.825884,1.472209 0,0.01593 0,0.03187 0,0.04391 z m -6.026924,41.234096 c 0,0 6.468157,1.20726 13.508489,2.51748 -0.05433,-0.3632 -0.05107,-0.73825 0.09172,-1.10513 0.09336,-0.24349 0.241044,-0.44286 0.400583,-0.62651 L 44.221813,99.762164 c -1.859923,-1.135566 -2.397778,-3.421605 -1.324518,-5.154877 0.518654,-0.840183 1.334936,-1.426656 2.296458,-1.654014 0.961521,-0.227562 1.954909,-0.06394 2.794479,0.454717 l 11.689831,7.2254 c 0.0815,-0.35891 0.218778,-0.706176 0.485152,-0.997266 0.173225,-0.19161 0.383833,-0.32725 0.599342,-0.44062 L 50.224023,89.561903 c -1.3237,-1.731433 -1.001354,-4.055059 0.623243,-5.286427 1.627049,-1.230348 3.952105,-0.907185 5.183474,0.718229 l 8.387115,11.083543 c 0.194062,-0.303348 0.438169,-0.576259 0.784415,-0.750096 0.18446,-0.09172 0.379135,-0.119705 0.571357,-0.153206 0.04146,-0.03043 0.07987,-0.06231 0.120522,-0.09029 L 60.050051,83.313954 c -0.594644,-2.033148 0.510687,-4.021559 2.412894,-4.568198 1.902412,-0.540307 3.89164,0.565024 4.43501,2.465597 l 3.372986,11.797688 c 1.451373,-0.434902 2.986702,-0.674311 4.578616,-0.674311 1.294285,0 2.145702,0.107854 3.351333,0.399153 -0.01124,-2.130586 -0.02227,-4.153317 -0.02308,-4.34084 C 77.894477,88.085814 67.45971,76.746927 67.45971,76.746927 65.621237,75.238766 64.954893,75.158895 63.761315,76.35186 l -0.348084,0.347062 -3.260431,-2.557316 0.442255,-0.442868 c 1.227896,-1.228917 2.384909,-2.074614 3.948224,-2.226187 -2.268677,-1.192964 -4.202954,-2.212091 -4.542051,-2.390016 -0.351761,0.363201 -2.041931,2.114653 -2.933182,3.038589 -0.133187,2.321992 -2.04765,4.174968 -4.403961,4.174968 -2.440063,0 -4.426227,-1.984529 -4.426227,-4.424592 l 0,-0.231443 1.695686,-1.695686 0,1.340656 c 0,0.299058 0.115824,0.578506 0.326431,0.78993 0.435718,0.434902 1.145777,0.434902 1.581495,0 0,0 1.305521,-1.420322 2.174301,-2.36591 l -0.0085,-0.0096 0.34931,-0.361566 c 0.24656,-0.267192 0.417333,-0.450835 0.417333,-0.450835 l 0.01124,0.01205 0.983175,-1.009526 -1.272836,0.0024 c -0.839366,0.69576 -1.884027,1.066927 -2.982005,1.023009 -1.18316,-0.0478 -2.276438,-0.550521 -3.079238,-1.420322 -0.581571,-0.630393 -0.952738,-1.400509 -1.097977,-2.226392 -4.888093,7.951602 -7.714439,17.299626 -7.714439,27.297856 0,4.193354 0.510687,8.269239 1.448105,12.180699 0.652044,-0.55849 1.493044,-0.76991 2.457017,-0.59036 z m 4.860311,17.34334 c 1.531244,2.29401 3.239594,4.46055 5.103601,6.48327 0.940074,-3.31538 2.997938,-6.29575 5.701311,-8.4343 -0.37178,-0.22491 -0.692492,-0.54255 -0.862449,-0.98155 -0.107854,-0.27924 -0.142993,-0.56399 -0.128489,-0.84568 l -9.813974,3.77826 z m 8.532354,-7.78002 c -0.275975,-0.36707 -0.470649,-0.80198 -0.470649,-1.29673 0,-0.34707 0.09642,-0.66226 0.239411,-0.95355 l -13.524627,-0.0255 c 0.594643,1.52982 1.256902,3.02185 1.987798,4.47812 l 11.768067,-2.20229 z M 96.415666,74.963404 c 0,1.905475 1.376404,3.479208 3.185462,3.80237 0.152389,-2.259892 2.015582,-4.053629 4.315302,-4.053629 l 8.68964,0 c 2.2981,0 4.16293,1.791286 4.31532,4.053629 1.80169,-0.331128 3.17177,-1.903227 3.17177,-3.80237 0,-7.317125 -5.0415,-11.737835 -11.83753,-13.419018 -6.79703,1.681183 -11.839964,6.101893 -11.839964,13.419018 z m 7.807994,-16.728882 c -1.51388,-0.592193 -2.59102,-2.056435 -2.59102,-3.778268 0,-2.242324 1.81927,-4.061595 4.06323,-4.061595 l 5.11709,0 c 2.24396,0 4.06323,1.819271 4.06323,4.061595 0,1.721833 -1.07633,3.186075 -2.59021,3.778268 6.92472,2.412077 11.90228,8.980941 11.90228,16.728882 0,4.009709 -2.97158,7.297309 -6.82646,7.854366 l 0,2.954019 -6.07003,5.593452 0,11.650199 3.49903,0 0,-4.923429 5.9207,0 0,3.722499 4.35044,0 0,-3.722499 5.9209,0 0,13.162239 -5.9209,0 0,-3.18383 -4.35044,0 0,3.18383 -4.91117,0 0,4.0375 4.91117,0 0,3.18219 4.35044,0 0,-3.18219 5.9209,0 0,11.93332 c 8.19878,-9.22832 13.18615,-21.36899 13.18615,-34.658897 0,-28.41095 -22.78481,-51.583272 -51.038472,-52.243284 l 0,29.362257 c 1.672399,-5.350365 5.811415,-9.611333 11.093142,-11.450624 z m -2.83676,85.703698 c 11.10335,-2.04683 20.99006,-7.60209 28.45487,-15.48423 l -4.77983,0 0,-3.56684 -4.35044,0 0,3.56684 -5.9207,0 0,-4.92507 -3.49903,0 c 0,0 0.0239,7.49831 0.0239,7.5743 0,1.68752 -1.37314,3.06004 -3.06167,3.06004 -1.68772,0 -3.06085,-1.37252 -3.06085,-3.06004 0,-0.0759 0.0239,-39.737979 0.0239,-39.737979 l -6.069985,-5.593452 0,-2.954019 c -2.669055,-0.385467 -4.88748,-2.097085 -6.016507,-4.431129 l 0,60.536429 2.030697,5.87679 6.859955,-5.57753 -0.63427,4.71589 z m -9.395826,23.08448 c 5.627158,0 10.204136,-4.57616 10.204136,-10.20169 0,-5.62552 -4.576978,-10.20169 -10.204136,-10.20169 -5.626341,0 -10.203323,4.57617 -10.203323,10.20169 0,5.62553 4.576982,10.20169 10.203323,10.20169 z m 15.974906,-1.82314 1.52245,1.87503 -8.86593,-1.3045 1.40276,8.76544 -6.985997,-5.66149 -3.209362,8.39448 -3.207727,-8.39856 -6.972513,5.67353 1.418689,-8.88514 -8.887589,1.42421 1.545747,-1.90303 C 42.452797,157.77457 17.4945,128.03502 17.4945,92.566173 c 0,-41.026554 33.376667,-74.402199 74.400769,-74.402199 41.024921,0 74.400771,33.375645 74.400771,74.402199 0,35.504797 -25.0061,65.266607 -58.33006,72.633387" id="path2920" style="fill:#9c9a9b;fill-opacity:1;fill-rule:nonzero;stroke:none"/><path d="m 212.73935,107.037 c -16.11933,0 -19.75338,9.24017 -19.75338,19.51784 l 0,35.13364 9.83787,0 0,-34.49527 c 0,-6.77213 2.11834,-11.55195 10.59778,-11.55195 7.56839,0 10.74691,3.345 10.74691,12.5055 l 0,33.54172 9.76432,0 0,-32.90337 c 0,-14.65835 -7.72158,-21.74811 -21.1935,-21.74811" id="path2922" style="fill:#dd0860;fill-opacity:1;fill-rule:nonzero;stroke:none"/><path d="m 273.50089,107.91313 c 0,0 -19.28763,35.21105 -20.8013,38.71805 0.30437,-4.62009 0.45552,-13.06644 0.45552,-19.51785 l 0,-19.2002 -9.53554,0 0,53.77535 12.49958,0 c 0,0 18.90768,-34.25832 20.80131,-38.32155 -0.37996,5.41818 -0.52908,14.97763 -0.52908,21.59103 l 0,16.73052 9.53554,0 0,-53.77535 -12.42603,0" id="path2924" style="fill:#dd0860;fill-opacity:1;fill-rule:nonzero;stroke:none"/><path d="m 297.50522,107.91313 9.83792,0 0,53.77535 -9.83792,0 0,-53.77535 z" id="path2926" style="fill:#dd0860;fill-opacity:1;fill-rule:nonzero;stroke:none"/><path d="m 342.75005,107.91313 -11.35155,0 -17.78416,53.77535 10.74485,0 9.9155,-31.46874 c 0.9846,-3.02653 2.12037,-6.6134 3.02735,-10.51525 l 0.15117,0 c 0.75786,3.66244 1.58926,6.61094 3.02735,11.15135 l 10.06666,30.83264 10.06463,0 -17.8618,-53.77535" id="path2928" style="fill:#dd0860;fill-opacity:1;fill-rule:nonzero;stroke:none"/><path d="m 367.32636,107.91313 0,53.77535 28.07144,0 0,-8.68556 -18.12734,0 0,-13.22373 17.2081,0 0,-8.44473 -17.2081,0 0,-14.57848 18.12734,0 0,-8.84285 -28.07144,0" id="path2930" style="fill:#dd0860;fill-opacity:1;fill-rule:nonzero;stroke:none"/><path d="m 419.74736,153.56141 c -1.43809,0 -2.87823,-0.0799 -3.8608,-0.23942 l 0,-15.53367 c 0.68024,-0.0797 2.04275,-0.15954 3.55643,-0.15954 5.90354,0 9.5376,3.18547 9.5376,8.20449 0,5.17878 -3.02737,7.72814 -9.23323,7.72814 z m 10.74485,-45.64828 -14.22569,22.22694 -0.37996,0 0,-22.22694 -9.83787,0 0,53.77535 c 4.00991,0.23941 8.77769,0.31764 14.68123,0.31764 11.27802,0 18.54203,-4.14371 18.54203,-15.13553 0,-7.96754 -5.29685,-13.7048 -13.01639,-14.97743 1.43809,-1.9925 2.87415,-4.06323 4.16107,-5.89681 l 12.26263,-18.08322 -12.18705,0" id="path2932" style="fill:#dd0860;fill-opacity:1;fill-rule:nonzero;stroke:none"/><path d="m 459.31335,107.037 c -3.63405,0 -7.26606,0.39894 -10.44661,1.27283 l 0.60669,9.64157 c 2.87823,-1.03588 6.96373,-1.91345 10.67132,-1.91345 4.99452,0 8.85531,2.15041 8.85531,7.08977 0,10.27748 -21.41821,5.57752 -21.41821,23.26404 0,9.55945 7.19047,16.17285 19.45105,16.17285 2.87618,0 6.20586,-0.39977 9.23526,-0.9558 l -0.53112,-9.08227 c -2.87618,0.87533 -6.0547,1.43381 -9.15968,1.43381 -5.67475,0 -8.55094,-2.70909 -8.55094,-6.53271 0,-9.63932 21.49379,-6.0549 21.49379,-22.86366 0,-10.11793 -7.64396,-17.52698 -20.20686,-17.52698" id="path2934" style="fill:#dd0860;fill-opacity:1;fill-rule:nonzero;stroke:none"/><path d="m 487.46651,107.91313 9.8379,0 0,53.77535 -9.8379,0 0,-53.77535 z" id="path2936" style="fill:#dd0860;fill-opacity:1;fill-rule:nonzero;stroke:none"/><path d="m 527.12441,152.84317 0,-44.93004 -9.83991,0 0,44.93004 -13.24518,0 0,8.84531 36.32824,0 0,-8.84531 -13.24315,0" id="path2938" style="fill:#dd0860;fill-opacity:1;fill-rule:nonzero;stroke:none"/><path d="m 559.05257,165.19159 -3.50536,5.81693 13.94176,8.76379 4.2244,-7.01235 -14.6608,-7.56837 z m -10.9144,-57.27846 0,53.77535 29.2399,0 0,-8.68556 -18.88317,0 0,-13.22373 17.92511,0 0,-8.44473 -17.92511,0 0,-14.57848 18.88317,0 0,-8.84285 -29.2399,0" id="path2940" style="fill:#dd0860;fill-opacity:1;fill-rule:nonzero;stroke:none"/><path d="m 209.91423,67.526574 c -2.39002,0 -4.6207,-0.07987 -6.29167,-0.239409 l 0,-36.246728 c 1.43197,-0.23941 3.58299,-0.398949 5.65433,-0.398949 10.11977,0 17.44711,5.735628 17.44711,18.482786 0,11.551945 -4.54103,18.4023 -16.80977,18.4023 z m -1.67098,-45.727938 c -5.57874,0 -10.43844,0.239409 -14.97743,0.398948 l 0,53.615807 c 4.22032,0.159539 10.75508,0.397315 17.36542,0.397315 16.65043,0 27.24617,-7.409048 27.24617,-26.290782 0,-18.482173 -12.10737,-28.121288 -29.63416,-28.121288" id="path2942" style="fill:#dd0860;fill-opacity:1;fill-rule:nonzero;stroke:none"/><path d="m 244.88811,22.117713 0,53.775345 29.23786,0 0,-8.685561 -18.88112,0 0,-13.223729 17.92715,0 0,-8.444722 -17.92715,0 0,-14.57848 18.88112,0 0,-8.842853 -29.23786,0" id="path2944" style="fill:#dd0860;fill-opacity:1;fill-rule:nonzero;stroke:none"/><path d="m 348.29407,64.737814 c -4.29998,1.673216 -9.23935,2.708889 -14.25839,2.708889 -10.59777,0 -18.24582,-6.690613 -18.24582,-18.719744 0,-11.392406 6.21609,-18.085471 17.12845,-18.085471 2.54935,0 4.78207,0.319078 6.85138,0.955802 l 0,18.721583 10.35877,0 0,-25.651606 c -5.33974,-2.150605 -11.95212,-3.345817 -18.40312,-3.345817 -17.04878,0 -27.1665,10.038064 -27.1665,26.447869 0,16.888624 11.47003,28.920206 30.11214,28.920206 5.3377,0 10.59779,-0.956005 15.21644,-2.312595 l -1.59335,-9.639116" id="path2946" style="fill:#dd0860;fill-opacity:1;fill-rule:nonzero;stroke:none"/><path d="m 361.12049,22.117713 0,53.775345 29.23785,0 0,-8.685561 -18.88112,0 0,-13.223729 17.92511,0 0,-8.444722 -17.92511,0 0,-14.57848 18.88112,0 0,-8.842853 -29.23785,0" id="path2948" style="fill:#dd0860;fill-opacity:1;fill-rule:nonzero;stroke:none"/><path d="m 432.5513,22.117713 c 0,0 -20.28449,35.211054 -21.87783,38.718044 0.31663,-4.620083 0.478,-13.066438 0.478,-19.517845 l 0,-19.200199 -10.03806,0 0,53.775345 13.17573,0 c 0,0 19.88615,-34.258317 21.87783,-38.319095 -0.40038,5.415733 -0.55971,14.975182 -0.55971,21.588579 l 0,16.730516 10.03806,0 0,-53.775345 -13.09402,0" id="path2950" style="fill:#dd0860;fill-opacity:1;fill-rule:nonzero;stroke:none"/><path d="m 474.16617,79.316295 -14.65876,7.568586 4.38374,7.092013 13.86004,-8.763797 -3.58502,-5.896802 z m -17.76373,-57.198582 0,53.775345 29.2358,0 0,-8.685561 -18.88112,0 0,-13.223729 17.92716,0 0,-8.444722 -17.92716,0 0,-14.57848 18.88112,0 0,-8.842853 -29.2358,0" id="path2952" style="fill:#dd0860;fill-opacity:1;fill-rule:nonzero;stroke:none"/><path d="m 522.68348,22.117713 -11.94803,0 -18.72179,53.775345 11.31273,0 10.43436,-31.468739 c 1.03568,-3.026536 2.23069,-6.613398 3.18874,-10.516885 l 0.15933,0 c 0.79463,3.666529 1.67097,6.61258 3.18465,11.152996 l 10.59573,30.832628 10.59574,0 -18.80146,-53.775345" id="path2954" style="fill:#dd0860;fill-opacity:1;fill-rule:nonzero;stroke:none"/><path d="m 548.25665,22.117713 0,53.775345 29.23785,0 0,-8.685561 -18.88112,0 0,-13.223729 17.92511,0 0,-8.444722 -17.92511,0 0,-14.57848 18.88112,0 0,-8.842853 -29.23785,0" id="path2956" style="fill:#dd0860;fill-opacity:1;fill-rule:nonzero;stroke:none"/></g></svg>